<?xml version="1.0" encoding="UTF-8" standalone="no" ?>
<!DOCTYPE svg PUBLIC "-//W3C//DTD SVG 1.1//EN" "http://www.w3.org/Graphics/SVG/1.1/DTD/svg11.dtd">
<svg xmlns="http://www.w3.org/2000/svg" xmlns:xlink="http://www.w3.org/1999/xlink" version="1.1" width="1080" height="1080" viewBox="0 0 1080 1080" xml:space="preserve">
<desc>Created with Fabric.js 5.2.4</desc>
<defs>
</defs>
<g transform="matrix(1 0 0 1 540 540)" id="2e59740a-cccf-409a-869b-08ca452c57b6"  >
<rect style="stroke: none; stroke-width: 1; stroke-dasharray: none; stroke-linecap: butt; stroke-dashoffset: 0; stroke-linejoin: miter; stroke-miterlimit: 4; fill: rgb(255,255,255); fill-rule: nonzero; opacity: 1; visibility: hidden;" vector-effect="non-scaling-stroke"  x="-540" y="-540" rx="0" ry="0" width="1080" height="1080" />
</g>
<g transform="matrix(1 0 0 1 540 540)" id="d2b0a04f-8e85-470d-8718-eee6a8900b41"  >
</g>
<g transform="matrix(1 0 0 1 540 540)"  >
<g style="" vector-effect="non-scaling-stroke"   >
		<g transform="matrix(0.13 0 0 -0.13 125.68 -66.75)"  >
<path style="stroke: none; stroke-width: 1; stroke-dasharray: none; stroke-linecap: butt; stroke-dashoffset: 0; stroke-linejoin: miter; stroke-miterlimit: 4; fill: rgb(255,255,255); fill-rule: nonzero; opacity: 1;" vector-effect="non-scaling-stroke"  transform=" translate(-3300, -3173.12)" d="M 3337 4870 C 3062 4820 2811 4646 2670 4406 C 2630 4338 2622 4330 2600 4334 C 2417 4370 2249 4319 2118 4189 C 2067 4137 2041 4101 2006 4028 C 1981 3976 1960 3923 1960 3909 C 1960 3872 1989 3850 2108 3800 L 2215 3755 L 2223 3700 C 2247 3530 2436 3451 2576 3552 C 2626 3588 2630 3587 2767 3529 C 2867 3487 2900 3482 2924 3505 C 2965 3546 3020 3726 3020 3818 C 3020 3893 2994 3992 2956 4065 C 2926 4124 2843 4217 2786 4257 L 2757 4277 L 2784 4327 C 2883 4509 3083 4663 3293 4720 C 3389 4746 3564 4750 3655 4727 C 3891 4669 4069 4522 4174 4299 C 4225 4191 4242 4120 4247 3981 C 4254 3817 4236 3733 4147 3515 C 4109 3422 4043 3260 4000 3155 C 3957 3051 3899 2909 3870 2840 C 3759 2572 3650 2306 3579 2127 C 3546 2046 3504 1945 3486 1902 C 3386 1670 3330 1531 3330 1513 C 3330 1503 3335 1489 3342 1482 C 3358 1466 3455 1466 3468 1482 C 3474 1489 3506 1565 3540 1650 C 3574 1735 3608 1812 3616 1820 C 3629 1833 3681 1835 3988 1832 C 4257 1830 4348 1826 4358 1816 C 4365 1809 4398 1739 4431 1659 C 4511 1468 4509 1470 4568 1470 C 4621 1470 4640 1482 4640 1516 C 4640 1543 4634 1558 4380 2165 C 4359 2215 4308 2338 4266 2440 C 4224 2542 4168 2674 4143 2735 C 4067 2917 4070 2961 4176 3217 C 4207 3293 4254 3407 4280 3470 C 4374 3696 4396 3803 4387 3997 C 4384 4069 4374 4154 4364 4190 C 4279 4510 4056 4744 3740 4845 C 3669 4868 3633 4873 3520 4876 C 3446 4877 3363 4875 3337 4870 z M 2634 4179 C 2796 4119 2901 3926 2870 3746 C 2853 3651 2853 3651 2768 3682 C 2728 3696 2655 3725 2605 3745 C 2556 3765 2454 3806 2380 3836 C 2197 3910 2130 3942 2130 3954 C 2130 4004 2238 4128 2313 4163 C 2418 4213 2530 4219 2634 4179 z M 4070 2540 C 4256 2087 4290 1998 4285 1990 C 4277 1977 3846 1977 3800 1990 C 3759 2001 3730 2042 3730 2088 C 3730 2105 3763 2199 3804 2297 C 3845 2395 3901 2533 3930 2603 C 3959 2674 3986 2728 3991 2723 C 3995 2719 4031 2636 4070 2540 z" stroke-linecap="round" />
</g>
		<g transform="matrix(0.13 0 0 -0.13 -35.38 9.33)"  >
<path style="stroke: none; stroke-width: 1; stroke-dasharray: none; stroke-linecap: butt; stroke-dashoffset: 0; stroke-linejoin: miter; stroke-miterlimit: 4; fill: rgb(255,255,255); fill-rule: nonzero; opacity: 1;" vector-effect="non-scaling-stroke"  transform=" translate(-2092.06, -2602.48)" d="M 3948 3870 C 3878 3849 3858 3829 3519 3455 C 3120 3015 2723 2550 2469 2228 C 2451 2205 2480 2177 2214 2470 C 1904 2812 1831 2870 1706 2870 C 1604 2870 1542 2819 1511 2710 L 1495 2650 L 1455 2701 C 1334 2856 1146 2961 932 2991 C 711 3022 454 2928 293 2758 C 175 2633 98 2472 80 2313 C 27 1846 382 1449 853 1450 C 1136 1451 1405 1615 1535 1868 C 1550 1897 1566 1922 1570 1925 C 1580 1931 1603 1778 1635 1503 C 1650 1367 1659 1343 1695 1334 C 1752 1320 1768 1333 2015 1596 C 2189 1781 2418 2010 2431 2010 C 2443 2010 2726 1742 2905 1560 C 3046 1418 3081 1390 3121 1390 C 3152 1390 3204 1447 3225 1505 C 3267 1621 3484 2159 3555 2325 C 3794 2882 4067 3549 4095 3644 C 4132 3766 4096 3856 4005 3873 C 3988 3876 3963 3875 3948 3870 z M 3765 3298 C 3704 3125 3522 2595 3425 2310 C 3383 2186 3307 1968 3256 1825 C 3204 1682 3157 1548 3151 1528 C 3126 1452 3108 1461 2962 1623 C 2795 1808 2549 2092 2543 2108 C 2539 2117 2648 2233 2827 2413 C 3097 2686 3379 2984 3599 3230 C 3749 3398 3804 3453 3808 3442 C 3810 3436 3790 3371 3765 3298 z M 1020 2834 C 1122 2804 1210 2750 1296 2665 C 1433 2529 1487 2385 1477 2181 C 1471 2053 1448 1980 1381 1877 C 1264 1700 1092 1601 882 1592 C 757 1587 680 1600 583 1645 C 410 1725 290 1865 234 2056 C 207 2146 209 2304 239 2400 C 265 2486 320 2584 379 2652 C 461 2744 620 2829 749 2850 C 823 2862 952 2854 1020 2834 z M 1743 2684 C 1778 2666 2350 2102 2350 2084 C 2350 2062 1890 1517 1796 1428 C 1740 1375 1706 1366 1696 1403 C 1681 1464 1671 1747 1668 2186 C 1665 2737 1663 2724 1743 2684 z" stroke-linecap="round" />
</g>
		<g transform="matrix(0.13 0 0 -0.13 54.59 259.32)"  >
<path style="stroke: none; stroke-width: 1; stroke-dasharray: none; stroke-linecap: butt; stroke-dashoffset: 0; stroke-linejoin: miter; stroke-miterlimit: 4; fill: rgb(255,255,255); fill-rule: nonzero; opacity: 1;" vector-effect="non-scaling-stroke"  transform=" translate(-2766.78, -727.6)" d="M 2747 976 C 2687 960 2634 917 2595 855 C 2571 816 2565 794 2562 735 C 2558 674 2562 656 2584 613 C 2614 553 2675 498 2729 482 C 2814 456 2947 477 2970 519 C 2976 531 2973 546 2959 569 C 2934 610 2919 615 2881 596 C 2759 532 2638 661 2694 795 C 2721 860 2818 891 2880 855 C 2921 832 2938 837 2959 879 C 2983 924 2975 941 2920 964 C 2866 986 2800 991 2747 976 z" stroke-linecap="round" />
</g>
		<g transform="matrix(0.13 0 0 -0.13 150.5 259.35)"  >
<path style="stroke: none; stroke-width: 1; stroke-dasharray: none; stroke-linecap: butt; stroke-dashoffset: 0; stroke-linejoin: miter; stroke-miterlimit: 4; fill: rgb(255,255,255); fill-rule: nonzero; opacity: 1;" vector-effect="non-scaling-stroke"  transform=" translate(-3486.1, -727.35)" d="M 3435 981 C 3351 960 3274 896 3243 822 C 3220 767 3223 670 3250 615 C 3296 520 3373 471 3476 470 C 3587 470 3667 514 3717 605 C 3750 665 3754 751 3726 823 C 3707 874 3640 941 3588 963 C 3544 982 3472 990 3435 981 z M 3557 850 C 3601 824 3634 758 3627 709 C 3613 603 3494 546 3409 603 C 3294 680 3348 870 3485 870 C 3507 870 3539 861 3557 850 z" stroke-linecap="round" />
</g>
		<g transform="matrix(0.13 0 0 -0.13 -119.62 259.8)"  >
<path style="stroke: none; stroke-width: 1; stroke-dasharray: none; stroke-linecap: butt; stroke-dashoffset: 0; stroke-linejoin: miter; stroke-miterlimit: 4; fill: rgb(255,255,255); fill-rule: nonzero; opacity: 1;" vector-effect="non-scaling-stroke"  transform=" translate(-1460.26, -724)" d="M 1253 969 C 1243 959 1240 896 1240 723 C 1240 445 1228 465 1390 472 C 1536 479 1612 520 1656 614 C 1715 741 1665 887 1542 947 C 1495 970 1472 974 1376 978 C 1294 981 1262 979 1253 969 z M 1490 848 C 1526 830 1539 816 1554 778 C 1571 737 1572 726 1561 689 C 1554 666 1538 637 1525 624 C 1496 595 1424 575 1390 587 C 1365 595 1365 596 1362 733 L 1359 870 L 1403 870 C 1427 870 1465 860 1490 848 z" stroke-linecap="round" />
</g>
		<g transform="matrix(0.13 0 0 -0.13 -29.24 259.67)"  >
<path style="stroke: none; stroke-width: 1; stroke-dasharray: none; stroke-linecap: butt; stroke-dashoffset: 0; stroke-linejoin: miter; stroke-miterlimit: 4; fill: rgb(255,255,255); fill-rule: nonzero; opacity: 1;" vector-effect="non-scaling-stroke"  transform=" translate(-2138.06, -724.95)" d="M 1957 973 C 1953 970 1950 860 1950 729 C 1950 504 1951 490 1969 480 C 1990 469 2259 466 2297 476 C 2323 483 2334 519 2320 554 C 2311 579 2308 580 2216 580 C 2089 580 2070 588 2070 639 L 2070 679 L 2163 682 L 2255 685 L 2258 732 C 2262 787 2259 788 2145 792 L 2075 795 L 2075 830 L 2075 865 L 2195 870 L 2315 875 L 2318 915 C 2323 976 2312 980 2125 980 C 2036 980 1960 977 1957 973 z" stroke-linecap="round" />
</g>
</g>
</g>
</svg>